# xmcd
#
# Track frame offsets: 
#        150
#        11857
#        24671
#        38853
#        53186
#        66085
#        79555
#        93119
#        105937
#        116657
#        129479
#        141195
#        156154
#        168906
#        180787
#        193800
#        204371
#        217645
#
# Disc length: 3070 seconds
#
# Revision: 1
# Processed by: cddbd v1.5.1PL0 Copyright (c) Steve Scherf et al.
# Submitted via: ExactAudioCopy v0.90b4
#
DISCID=e20bfc12
DTITLE=Django Reinhardt - Ultimate Jazz and Blues
DYEAR=2004
DGENRE=Jazz
TTITLE0=How High The Moon
TTITLE1=Seul Ce Soir
TTITLE2=Embraceable You
TTITLE3=Vous Et Moi
TTITLE4=Folie Á Amphion
TTITLE5=Danse Norvégienne
TTITLE6=Studio 24
TTITLE7=Clair De Lune
TTITLE8=Blue Lou
TTITLE9=Place De Brouckére
TTITLE10=Mixture
TTITLE11=Port Cabello
TTITLE12=On The Sunny Side Of The Street
TTITLE13=Django's Tiger
TTITLE14=Swinging In Springtime
TTITLE15=Welcome - (2e Partie)
TTITLE16=Yours And Mine
TTITLE17=Dinette
EXTD=
EXTT0=
EXTT1=
EXTT2=
EXTT3=
EXTT4=
EXTT5=
EXTT6=
EXTT7=
EXTT8=
EXTT9=
EXTT10=
EXTT11=
EXTT12=
EXTT13=
EXTT14=
EXTT15=
EXTT16=
EXTT17=
PLAYORDER=
